M48
; DRILL file KiCad 10.0.4 date 2026-08-02T14:57:18
; FORMAT={-:-/ absolute / metric / decimal}
; #@! TF.CreationDate,2026-08-02T14:57:18-04:00
; #@! TF.GenerationSoftware,Kicad,Pcbnew,10.0.4
; #@! TF.FileFunction,Plated,1,4,PTH
FMAT,2
METRIC
; #@! TA.AperFunction,Plated,PTH,ViaDrill
T1C0.300
; #@! TA.AperFunction,Plated,PTH,ComponentDrill
T2C0.750
; #@! TA.AperFunction,Plated,PTH,ComponentDrill
T3C0.800
; #@! TA.AperFunction,Plated,PTH,ComponentDrill
T4C0.900
; #@! TA.AperFunction,Plated,PTH,ComponentDrill
T5C1.000
; #@! TA.AperFunction,Plated,PTH,ComponentDrill
T6C1.100
; #@! TA.AperFunction,Plated,PTH,ComponentDrill
T7C1.200
%
G90
G05
T1
X198.12Y-203.2
X208.026Y-211.48
X209.347Y-212.598
X210.972Y-213.106
X211.836Y-184.404
X211.836Y-207.772
X213.36Y-213.503
X215.9Y-168.656
X216.002Y-167.843
X217.78Y-218.999
X218.44Y-208.28
X219.456Y-195.072
X220.269Y-168.554
X220.98Y-186.944
X225.654Y-193.802
X227.076Y-174.244
X227.584Y-182.372
X227.687Y-174.761
X228.6Y-218.44
X229.2Y-168.656
X229.616Y-184.912
X230.124Y-163.576
X230.124Y-178.816
X230.724Y-170.688
X231.14Y-187.452
X231.648Y-172.72
X232.664Y-197.612
X233.68Y-167.64
X234.696Y-189.992
X234.696Y-211.836
X235.671Y-218.034
X236.271Y-177.343
X236.626Y-225.908
X236.88Y-187.554
X237.033Y-224.384
X237.744Y-167.132
X238.252Y-183.896
X240.741Y-239.471
X240.792Y-173.736
X241.296Y-223.728
X241.452Y-238.862
X241.605Y-192.634
X241.808Y-195.123
X241.808Y-223.114
X242.418Y-197.663
X242.462Y-222.562
X242.824Y-175.26
X243.027Y-221.996
X243.078Y-200.203
X243.789Y-221.336
X243.84Y-202.743
X244.45Y-220.726
X244.492Y-205.334
X246.888Y-192.532
X247.904Y-189.924
X247.904Y-207.772
X248.412Y-200.152
X248.92Y-181.356
X249.428Y-205.74
X249.428Y-210.312
X249.844Y-204.383
X250.512Y-211.836
X251.46Y-175.26
X251.46Y-182.372
X251.46Y-202.692
X253.492Y-171.196
X253.492Y-174.244
X253.492Y-191.516
X254.203Y-201.574
X256.032Y-180.848
X256.54Y-179.324
X257.556Y-169.164
X258.521Y-198.374
X260.096Y-227.94
X260.858Y-202.184
X261.112Y-170.18
X261.366Y-196.698
X261.62Y-182.972
X261.976Y-218.694
X262.128Y-168.656
X265.176Y-180.34
X266.012Y-219.354
X266.192Y-163.65
X266.243Y-187.96
X266.903Y-206.604
X269.138Y-181.204
X270.459Y-204.064
X270.51Y-224.18
X274.371Y-160.579
X275.072Y-206.248
X276.379Y-227.228
X281.893Y-194.546
T2
X283.718Y-196.444
X284.988Y-196.444
X286.258Y-196.444
X294.234Y-177.241
X295.504Y-177.241
X296.774Y-177.241
T3
X194.31Y-230.57
X194.31Y-235.57
X198.354Y-209.499
X198.365Y-200.609
X198.394Y-191.008
X198.425Y-187.858
X203.354Y-209.499
X203.394Y-191.008
X203.425Y-187.858
X204.622Y-247.04
X205.985Y-200.609
X207.406Y-170.942
X208.198Y-200.609
X208.534Y-174.041
X208.991Y-176.682
X208.991Y-184.302
X212.09Y-176.682
X212.09Y-181.682
X212.242Y-247.04
X212.406Y-170.942
X213.198Y-200.609
X213.534Y-174.041
X214.579Y-170.942
X215.737Y-174.041
X216.742Y-192.024
X216.742Y-199.644
X216.753Y-195.123
X216.753Y-205.791
X216.753Y-210.363
X216.764Y-202.743
X216.804Y-223.063
X219.579Y-170.942
X220.737Y-174.041
X221.742Y-192.024
X221.742Y-199.644
X221.753Y-195.123
X221.753Y-205.791
X221.753Y-210.363
X221.764Y-202.743
X221.771Y-170.942
X221.804Y-223.063
X223.977Y-174.803
X223.977Y-177.343
X223.977Y-179.883
X223.977Y-182.423
X223.977Y-184.963
X223.977Y-187.503
X223.977Y-190.043
X223.977Y-192.583
X223.977Y-195.123
X223.977Y-197.663
X223.977Y-200.203
X223.977Y-202.743
X223.977Y-205.283
X223.977Y-207.823
X223.977Y-210.363
X223.977Y-212.903
X223.977Y-215.443
X223.977Y-217.983
X223.977Y-220.523
X223.977Y-223.063
X225.298Y-233.985
X225.298Y-241.605
X226.771Y-170.942
X226.873Y-161.178
X226.873Y-166.178
X228.549Y-236.605
X228.549Y-241.605
X231.648Y-236.605
X231.648Y-241.605
X237.744Y-228.448
X237.744Y-241.148
X239.217Y-174.803
X239.217Y-177.343
X239.217Y-179.883
X239.217Y-182.423
X239.217Y-184.963
X239.217Y-187.503
X239.217Y-190.043
X239.217Y-192.583
X239.217Y-195.123
X239.217Y-197.663
X239.217Y-200.203
X239.217Y-202.743
X239.217Y-205.283
X239.217Y-207.823
X239.217Y-210.363
X239.217Y-212.903
X239.217Y-215.443
X239.217Y-217.983
X239.217Y-220.523
X239.217Y-223.063
X241.391Y-245.262
X241.452Y-225.908
X241.452Y-241.148
X242.113Y-185.064
X242.113Y-190.064
X243.891Y-245.262
X243.992Y-225.908
X243.992Y-241.148
X244.145Y-170.485
X245.567Y-176.987
X245.567Y-189.687
X246.532Y-225.908
X246.532Y-241.148
X246.583Y-246.939
X249.062Y-243.789
X249.072Y-225.908
X249.072Y-241.148
X251.612Y-225.908
X251.612Y-241.148
X251.765Y-170.485
X254.062Y-243.789
X254.152Y-225.908
X254.152Y-241.148
X254.203Y-246.939
X256.692Y-225.908
X256.692Y-241.148
X257.658Y-209.144
X257.658Y-216.764
X259.232Y-225.908
X259.232Y-241.148
X260.756Y-209.144
X260.756Y-216.764
X261.772Y-225.908
X261.772Y-241.148
X263.601Y-173.584
X263.601Y-176.124
X263.601Y-178.664
X263.601Y-181.204
X263.601Y-183.744
X263.601Y-186.284
X263.601Y-188.824
X263.601Y-191.364
X263.601Y-193.904
X263.601Y-196.444
X263.601Y-198.984
X263.601Y-201.524
X263.601Y-204.064
X263.601Y-206.604
X263.601Y-209.144
X263.601Y-211.684
X263.601Y-214.224
X263.601Y-216.764
X263.601Y-219.304
X263.601Y-221.844
X264.312Y-225.908
X264.312Y-241.148
X264.414Y-161.646
X266.852Y-225.908
X266.852Y-241.148
X269.392Y-225.908
X269.392Y-241.148
X271.932Y-225.908
X271.932Y-241.148
X272.034Y-161.646
X274.472Y-225.908
X274.472Y-241.148
X276.86Y-161.646
X278.079Y-229.108
X278.079Y-236.728
X278.841Y-173.584
X278.841Y-176.124
X278.841Y-178.664
X278.841Y-181.204
X278.841Y-183.744
X278.841Y-186.284
X278.841Y-188.824
X278.841Y-191.364
X278.841Y-193.904
X278.841Y-196.444
X278.841Y-198.984
X278.841Y-201.524
X278.841Y-204.064
X278.841Y-206.604
X278.841Y-209.144
X278.841Y-211.684
X278.841Y-214.224
X278.841Y-216.764
X278.841Y-219.304
X278.841Y-221.844
X281.381Y-219.304
X281.381Y-226.924
X281.483Y-229.108
X281.483Y-241.808
X282.092Y-204.064
X282.092Y-211.684
X283.312Y-179.121
X283.312Y-182.22
X283.769Y-184.861
X283.769Y-192.481
X284.48Y-161.646
X285.242Y-201.727
X285.242Y-209.347
X285.648Y-221.539
X285.648Y-229.159
X285.902Y-211.734
X285.902Y-219.354
X286.41Y-185.318
X286.41Y-188.366
X286.461Y-192.024
X288.239Y-228.702
X288.312Y-182.22
X288.747Y-216.967
X288.747Y-224.587
X288.95Y-195.224
X288.95Y-198.323
X289.408Y-209.753
X289.408Y-214.753
X290.504Y-182.22
X290.932Y-179.121
X291.389Y-222.555
X291.389Y-225.603
X294.03Y-185.318
X294.03Y-188.366
X294.03Y-202.59
X294.03Y-210.21
X294.03Y-212.344
X294.03Y-219.964
X294.081Y-192.024
X295.504Y-182.22
X295.859Y-228.702
X296.57Y-195.224
X296.57Y-198.323
X296.824Y-202.59
X296.824Y-210.21
X296.824Y-212.344
X296.824Y-219.964
X297.688Y-182.22
X298.846Y-199.898
X299.009Y-222.555
X299.009Y-225.603
X300.827Y-195.224
X302.688Y-182.22
X303.428Y-204.876
X303.846Y-199.898
X305.827Y-195.224
X306.059Y-199.898
X310.54Y-189.636
X310.54Y-197.256
X311.048Y-204.876
X311.059Y-199.898
T4
X289.143Y-205.09
X290.006Y-240.578
X290.006Y-245.578
X291.643Y-202.59
X291.643Y-207.59
X292.506Y-243.078
X298.998Y-240.549
X298.998Y-245.549
X301.498Y-243.049
T5
X194.513Y-161.9
X194.513Y-164.44
X194.513Y-166.98
X194.513Y-169.52
X194.513Y-172.06
X194.513Y-174.6
X194.513Y-177.14
X194.513Y-179.68
X194.513Y-182.22
X194.564Y-188.062
X194.564Y-190.602
X194.564Y-193.142
X194.564Y-195.682
X194.564Y-198.222
X194.564Y-200.762
X194.564Y-203.302
X194.564Y-205.842
X194.564Y-208.382
X194.869Y-241.503
X194.869Y-244.043
X194.869Y-246.583
X198.577Y-196.088
X198.577Y-205.181
X198.628Y-177.952
X198.637Y-183.54
X198.831Y-246.532
X199.085Y-161.9
X199.085Y-166.827
X199.085Y-171.806
X200.568Y-234.594
X201.371Y-246.532
X201.625Y-161.9
X201.625Y-166.827
X201.625Y-171.806
X204.165Y-161.9
X204.165Y-166.827
X204.165Y-171.806
X206.077Y-196.088
X206.077Y-205.181
X206.128Y-177.952
X206.137Y-183.54
X208.068Y-234.594
X225.022Y-245.516
X231.496Y-161.9
X231.496Y-164.44
X234.036Y-161.9
X234.036Y-164.44
X235.022Y-245.516
X236.576Y-161.9
X236.576Y-164.44
X239.116Y-161.9
X239.116Y-164.44
X241.656Y-161.9
X241.656Y-164.44
X244.196Y-161.9
X244.196Y-164.44
X246.736Y-161.9
X246.736Y-164.44
X249.276Y-161.9
X249.276Y-164.44
X251.816Y-161.9
X251.816Y-164.44
X254.356Y-161.9
X254.356Y-164.44
X256.896Y-161.9
X256.896Y-164.44
X259.436Y-161.9
X259.436Y-164.44
X268.609Y-169.164
X278.609Y-169.164
X286.868Y-240.487
X286.868Y-243.027
X286.868Y-245.567
X287.426Y-161.595
X291.135Y-161.595
X294.843Y-161.595
X296.001Y-240.549
X296.001Y-243.089
X296.001Y-245.629
X297.383Y-161.595
T6
X207.622Y-161.616
X207.622Y-166.116
X214.122Y-161.616
X214.122Y-166.116
X215.849Y-247.025
X217.272Y-161.616
X217.272Y-166.116
X218.389Y-247.025
X220.929Y-247.025
X223.772Y-161.616
X223.772Y-166.116
T7
X285.598Y-232.816
X300.838Y-232.816
M30
