%TF.GenerationSoftware,KiCad,Pcbnew,10.0.4*%
%TF.CreationDate,2026-08-02T14:56:58-04:00*%
%TF.ProjectId,uTari_kicad,75546172-695f-46b6-9963-61642e6b6963,rev?*%
%TF.SameCoordinates,Original*%
%TF.FileFunction,Copper,L1,Top*%
%TF.FilePolarity,Positive*%
%FSLAX46Y46*%
G04 Gerber Fmt 4.6, Leading zero omitted, Abs format (unit mm)*
G04 Created by KiCad (PCBNEW 10.0.4) date 2026-08-02 14:56:58*
%MOMM*%
%LPD*%
G01*
G04 APERTURE LIST*
G04 Aperture macros list*
%AMRoundRect*
0 Rectangle with rounded corners*
0 $1 Rounding radius*
0 $2 $3 $4 $5 $6 $7 $8 $9 X,Y pos of 4 corners*
0 Add a 4 corners polygon primitive as box body*
4,1,4,$2,$3,$4,$5,$6,$7,$8,$9,$2,$3,0*
0 Add four circle primitives for the rounded corners*
1,1,$1+$1,$2,$3*
1,1,$1+$1,$4,$5*
1,1,$1+$1,$6,$7*
1,1,$1+$1,$8,$9*
0 Add four rect primitives between the rounded corners*
20,1,$1+$1,$2,$3,$4,$5,0*
20,1,$1+$1,$4,$5,$6,$7,0*
20,1,$1+$1,$6,$7,$8,$9,0*
20,1,$1+$1,$8,$9,$2,$3,0*%
G04 Aperture macros list end*
%TA.AperFunction,Conductor*%
%ADD10C,0.200000*%
%TD*%
%TA.AperFunction,ComponentPad*%
%ADD11C,1.600000*%
%TD*%
%TA.AperFunction,ComponentPad*%
%ADD12C,2.000000*%
%TD*%
%TA.AperFunction,ComponentPad*%
%ADD13R,1.700000X1.700000*%
%TD*%
%TA.AperFunction,ComponentPad*%
%ADD14C,1.700000*%
%TD*%
%TA.AperFunction,ComponentPad*%
%ADD15RoundRect,0.250000X-0.550000X-0.550000X0.550000X-0.550000X0.550000X0.550000X-0.550000X0.550000X0*%
%TD*%
%TA.AperFunction,ComponentPad*%
%ADD16RoundRect,0.250000X-0.550000X0.550000X-0.550000X-0.550000X0.550000X-0.550000X0.550000X0.550000X0*%
%TD*%
%TA.AperFunction,ComponentPad*%
%ADD17RoundRect,0.250000X0.550000X-0.550000X0.550000X0.550000X-0.550000X0.550000X-0.550000X-0.550000X0*%
%TD*%
%TA.AperFunction,ComponentPad*%
%ADD18RoundRect,0.250000X0.550000X0.550000X-0.550000X0.550000X-0.550000X-0.550000X0.550000X-0.550000X0*%
%TD*%
%TA.AperFunction,ComponentPad*%
%ADD19R,1.050000X1.500000*%
%TD*%
%TA.AperFunction,ComponentPad*%
%ADD20O,1.050000X1.500000*%
%TD*%
%TA.AperFunction,ComponentPad*%
%ADD21C,1.620000*%
%TD*%
%TA.AperFunction,ComponentPad*%
%ADD22C,2.400000*%
%TD*%
%TA.AperFunction,ComponentPad*%
%ADD23R,1.905000X2.000000*%
%TD*%
%TA.AperFunction,ComponentPad*%
%ADD24O,1.905000X2.000000*%
%TD*%
%TA.AperFunction,ComponentPad*%
%ADD25C,1.500000*%
%TD*%
%TA.AperFunction,ViaPad*%
%ADD26C,0.600000*%
%TD*%
G04 APERTURE END LIST*
%TO.N,Net-(U3-PB1)*%
D10*
X223723200Y-166217600D02*
X226872800Y-166177600D01*
%TD*%
D11*
%TO.P,R25,1*%
%TO.N,+5V*%
X296824400Y-212344000D03*
%TO.P,R25,2*%
%TO.N,Net-(D5-K)*%
X296824400Y-219964000D03*
%TD*%
%TO.P,C10,1*%
%TO.N,GND*%
X212405600Y-170942000D03*
%TO.P,C10,2*%
%TO.N,Net-(SW2-B)*%
X207405600Y-170942000D03*
%TD*%
%TO.P,R8,1*%
%TO.N,Net-(C33-Pad1)*%
X310540400Y-189636400D03*
%TO.P,R8,2*%
%TO.N,Net-(Q1-C)*%
X310540400Y-197256400D03*
%TD*%
%TO.P,R10,1*%
%TO.N,Net-(Q1-C)*%
X288950400Y-198323200D03*
%TO.P,R10,2*%
%TO.N,GND*%
X296570400Y-198323200D03*
%TD*%
D12*
%TO.P,C31,1*%
%TO.N,+5V*%
X278608800Y-169164000D03*
%TO.P,C31,2*%
%TO.N,GND*%
X268608800Y-169164000D03*
%TD*%
D11*
%TO.P,R22,1*%
%TO.N,Net-(U2-LUM0)*%
X282092400Y-204063600D03*
%TO.P,R22,2*%
%TO.N,Net-(Q2-B)*%
X282092400Y-211683600D03*
%TD*%
%TO.P,R3,1*%
%TO.N,+5V*%
X245567200Y-176987200D03*
%TO.P,R3,2*%
%TO.N,Net-(U3-~{RES})*%
X245567200Y-189687200D03*
%TD*%
%TO.P,R9,1*%
%TO.N,Net-(C32-Pad2)*%
X303428400Y-204876400D03*
%TO.P,R9,2*%
%TO.N,Net-(Q1-C)*%
X311048400Y-204876400D03*
%TD*%
%TO.P,R26,1*%
%TO.N,Net-(D5-A)*%
X278079200Y-229108000D03*
%TO.P,R26,2*%
%TO.N,+5V*%
X278079200Y-236728000D03*
%TD*%
%TO.P,0.1,1*%
%TO.N,GND*%
X216803600Y-223062800D03*
%TO.P,0.1,2*%
%TO.N,+5V*%
X221803600Y-223062800D03*
%TD*%
%TO.P,R1,1*%
%TO.N,+5V*%
X237744000Y-228447600D03*
%TO.P,R1,2*%
%TO.N,Net-(U1-~{RES})*%
X237744000Y-241147600D03*
%TD*%
%TO.P,R17,1*%
%TO.N,Net-(U2-LUM2)*%
X285242000Y-201726800D03*
%TO.P,R17,2*%
%TO.N,Net-(Q2-B)*%
X285242000Y-209346800D03*
%TD*%
D12*
%TO.P,C27,1*%
%TO.N,Net-(J3-Pin_5)*%
X198577200Y-196088000D03*
%TO.P,C27,2*%
%TO.N,GND*%
X206077200Y-196088000D03*
%TD*%
D11*
%TO.P,C33,1*%
%TO.N,Net-(C33-Pad1)*%
X306059200Y-199898000D03*
%TO.P,C33,2*%
%TO.N,GND*%
X311059200Y-199898000D03*
%TD*%
%TO.P,C19,1*%
%TO.N,Net-(J3-Pin_4)*%
X221742000Y-199644000D03*
%TO.P,C19,2*%
%TO.N,GND*%
X216742000Y-199644000D03*
%TD*%
D12*
%TO.P,C25,1*%
%TO.N,Net-(J2-Pin_5)*%
X198628000Y-177952400D03*
%TO.P,C25,2*%
%TO.N,GND*%
X206128000Y-177952400D03*
%TD*%
D11*
%TO.P,C29,1*%
%TO.N,GND*%
X212090000Y-181682400D03*
%TO.P,C29,2*%
%TO.N,Net-(J2-Pin_6)*%
X212090000Y-176682400D03*
%TD*%
%TO.P,R19,1*%
%TO.N,Net-(D4-A)*%
X285648400Y-221538800D03*
%TO.P,R19,2*%
%TO.N,Net-(Q2-B)*%
X285648400Y-229158800D03*
%TD*%
D13*
%TO.P,J3,1,Pin_1_1*%
%TO.N,Net-(J3-Pin_1)*%
X194564000Y-188061600D03*
D14*
%TO.P,J3,2,Pin_2_2*%
%TO.N,Net-(J3-Pin_2)*%
X194564000Y-190601600D03*
%TO.P,J3,3,Pin_3_3*%
%TO.N,Net-(J3-Pin_3)*%
X194564000Y-193141600D03*
%TO.P,J3,4,Pin_4_4*%
%TO.N,Net-(J3-Pin_4)*%
X194564000Y-195681600D03*
%TO.P,J3,5,Pin_5_5*%
%TO.N,Net-(J3-Pin_5)*%
X194564000Y-198221600D03*
%TO.P,J3,6,Pin_6_6*%
%TO.N,Net-(J3-Pin_6)*%
X194564000Y-200761600D03*
%TO.P,J3,7,Pin_7_7*%
%TO.N,Net-(D3-K)*%
X194564000Y-203301600D03*
%TO.P,J3,8,Pin_8_8*%
%TO.N,GND*%
X194564000Y-205841600D03*
%TO.P,J3,9,Pin_9_9*%
%TO.N,Net-(J3-Pin_9)*%
X194564000Y-208381600D03*
%TD*%
D11*
%TO.P,C36,1*%
%TO.N,Net-(C36-Pad1)*%
X290503600Y-182219600D03*
%TO.P,C36,2*%
%TO.N,Net-(Q2-B)*%
X295503600Y-182219600D03*
%TD*%
D13*
%TO.P,J9,1,Pin_1_1*%
%TO.N,GND*%
X294843200Y-161594800D03*
D14*
%TO.P,J9,2,Pin_2_2*%
X297383200Y-161594800D03*
%TD*%
D11*
%TO.P,C11,1*%
%TO.N,Net-(SW3-B)*%
X214579200Y-170942000D03*
%TO.P,C11,2*%
%TO.N,GND*%
X219579200Y-170942000D03*
%TD*%
D13*
%TO.P,SW3,1,A_1*%
%TO.N,unconnected-(SW3-A-Pad1)*%
X204165200Y-161899600D03*
D14*
%TO.P,SW3,2,B_2*%
%TO.N,Net-(SW3-B)*%
X201625200Y-161899600D03*
%TO.P,SW3,3,C_3*%
%TO.N,GND*%
X199085200Y-161899600D03*
%TD*%
D15*
%TO.P,D1,1,K_1*%
%TO.N,Net-(D1-K)*%
X204622400Y-247040400D03*
D11*
%TO.P,D1,2,A_2*%
%TO.N,Net-(D1-A)*%
X212242400Y-247040400D03*
%TD*%
D16*
%TO.P,D5,1,K_1*%
%TO.N,Net-(D5-K)*%
X281381200Y-219303600D03*
D11*
%TO.P,D5,2,A_2*%
%TO.N,Net-(D5-A)*%
X281381200Y-226923600D03*
%TD*%
D13*
%TO.P,J2,1,Pin_1_1*%
%TO.N,Net-(J2-Pin_1)*%
X194513200Y-161899600D03*
D14*
%TO.P,J2,2,Pin_2_2*%
%TO.N,Net-(J2-Pin_2)*%
X194513200Y-164439600D03*
%TO.P,J2,3,Pin_3_3*%
%TO.N,Net-(J2-Pin_3)*%
X194513200Y-166979600D03*
%TO.P,J2,4,Pin_4_4*%
%TO.N,Net-(J2-Pin_4)*%
X194513200Y-169519600D03*
%TO.P,J2,5,Pin_5_5*%
%TO.N,Net-(J2-Pin_5)*%
X194513200Y-172059600D03*
%TO.P,J2,6,Pin_6_6*%
%TO.N,Net-(J2-Pin_6)*%
X194513200Y-174599600D03*
%TO.P,J2,7,Pin_7_7*%
%TO.N,Net-(D3-K)*%
X194513200Y-177139600D03*
%TO.P,J2,8,Pin_8_8*%
%TO.N,GND*%
X194513200Y-179679600D03*
%TO.P,J2,9,Pin_9_9*%
%TO.N,Net-(J2-Pin_9)*%
X194513200Y-182219600D03*
%TD*%
D11*
%TO.P,R21,1*%
%TO.N,Net-(D4-A)*%
X288747200Y-216966800D03*
%TO.P,R21,2*%
%TO.N,+5V*%
X288747200Y-224586800D03*
%TD*%
%TO.P,C16,1*%
%TO.N,Net-(J2-Pin_2)*%
X221752800Y-205790800D03*
%TO.P,C16,2*%
%TO.N,GND*%
X216752800Y-205790800D03*
%TD*%
%TO.P,C22,1*%
%TO.N,Net-(J3-Pin_1)*%
X221742000Y-192024000D03*
%TO.P,C22,2*%
%TO.N,GND*%
X216742000Y-192024000D03*
%TD*%
D13*
%TO.P,SW2,1,A_1*%
%TO.N,unconnected-(SW2-A-Pad1)*%
X204165200Y-166827200D03*
D14*
%TO.P,SW2,2,B_2*%
%TO.N,Net-(SW2-B)*%
X201625200Y-166827200D03*
%TO.P,SW2,3,C_3*%
%TO.N,GND*%
X199085200Y-166827200D03*
%TD*%
D17*
%TO.P,D3,1,K_1*%
%TO.N,Net-(D3-K)*%
X294030400Y-219964000D03*
D11*
%TO.P,D3,2,A_2*%
%TO.N,Net-(D2-K)*%
X294030400Y-212344000D03*
%TD*%
%TO.P,C6,1*%
%TO.N,GND*%
X254061600Y-243789200D03*
%TO.P,C6,2*%
%TO.N,+5V*%
X249061600Y-243789200D03*
%TD*%
D18*
%TO.P,U2,1,VSS(GND)_1*%
%TO.N,GND*%
X278841200Y-221843600D03*
D11*
%TO.P,U2,2,~{CSYNC}_2*%
%TO.N,Net-(D5-K)*%
X278841200Y-219303600D03*
%TO.P,U2,3,~{RDY}_3*%
%TO.N,Net-(U1-RDY)*%
X278841200Y-216763600D03*
%TO.P,U2,4,PHI0_4*%
%TO.N,Net-(U1-PHI0)*%
X278841200Y-214223600D03*
%TO.P,U2,5,LUM1_5*%
%TO.N,Net-(D4-K)*%
X278841200Y-211683600D03*
%TO.P,U2,6,~{BLANK}_6*%
%TO.N,unconnected-(U2-~{BLANK}-Pad6)*%
X278841200Y-209143600D03*
%TO.P,U2,7,LUM2_7*%
%TO.N,Net-(U2-LUM2)*%
X278841200Y-206603600D03*
%TO.P,U2,8,LUM0_8*%
%TO.N,Net-(U2-LUM0)*%
X278841200Y-204063600D03*
%TO.P,U2,9,COLOR_9*%
%TO.N,Net-(U2-COLOR)*%
X278841200Y-201523600D03*
%TO.P,U2,10,COLOR_ADJ_10*%
%TO.N,Net-(U2-COLOR_ADJ)*%
X278841200Y-198983600D03*
%TO.P,U2,11,OSC_11*%
%TO.N,Net-(Q1-C)*%
X278841200Y-196443600D03*
%TO.P,U2,12,AUD1_12*%
%TO.N,Net-(J4-Pin_1)*%
X278841200Y-193903600D03*
%TO.P,U2,13,AUD0_13*%
X278841200Y-191363600D03*
%TO.P,U2,14,D0_14*%
%TO.N,Net-(J6-Pin_9)*%
X278841200Y-188823600D03*
%TO.P,U2,15,D1_15*%
%TO.N,Net-(J6-Pin_10)*%
X278841200Y-186283600D03*
%TO.P,U2,16,D2_16*%
%TO.N,Net-(J6-Pin_11)*%
X278841200Y-183743600D03*
%TO.P,U2,17,D3_17*%
%TO.N,Net-(J6-Pin_13)*%
X278841200Y-181203600D03*
%TO.P,U2,18,D4_18*%
%TO.N,Net-(J6-Pin_14)*%
X278841200Y-178663600D03*
%TO.P,U2,19,D5_19*%
%TO.N,Net-(J6-Pin_15)*%
X278841200Y-176123600D03*
%TO.P,U2,20,VCC(+5V)_20*%
%TO.N,+5V*%
X278841200Y-173583600D03*
%TO.P,U2,21,~{CS3}_21*%
%TO.N,Net-(J6-Pin_1)*%
X263601200Y-173583600D03*
%TO.P,U2,22,~{CS2}_22*%
%TO.N,GND*%
X263601200Y-176123600D03*
%TO.P,U2,23,~{CS1}_23*%
%TO.N,+5V*%
X263601200Y-178663600D03*
%TO.P,U2,24,~{CS0}_24*%
%TO.N,Net-(J6-Pin_18)*%
X263601200Y-181203600D03*
%TO.P,U2,25,R/~{W}_25*%
%TO.N,Net-(U1-R{slash}~{W})*%
X263601200Y-183743600D03*
%TO.P,U2,26,PHI2_26*%
%TO.N,Net-(U1-PHI2)*%
X263601200Y-186283600D03*
%TO.P,U2,27,A5_27*%
%TO.N,Net-(J6-Pin_3)*%
X263601200Y-188823600D03*
%TO.P,U2,28,A4_28*%
%TO.N,Net-(J6-Pin_4)*%
X263601200Y-191363600D03*
%TO.P,U2,29,A3_29*%
%TO.N,Net-(J6-Pin_5)*%
X263601200Y-193903600D03*
%TO.P,U2,30,A2_30*%
%TO.N,Net-(J6-Pin_6)*%
X263601200Y-196443600D03*
%TO.P,U2,31,A1_31*%
%TO.N,Net-(J6-Pin_7)*%
X263601200Y-198983600D03*
%TO.P,U2,32,A0_32*%
%TO.N,Net-(J6-Pin_8)*%
X263601200Y-201523600D03*
%TO.P,U2,33,D6_33*%
%TO.N,Net-(J6-Pin_16)*%
X263601200Y-204063600D03*
%TO.P,U2,34,D7_34*%
%TO.N,Net-(J6-Pin_17)*%
X263601200Y-206603600D03*
%TO.P,U2,35,I5(TRIG1)_35*%
%TO.N,Net-(U2-I5(TRIG1))*%
X263601200Y-209143600D03*
%TO.P,U2,36,I4(TRIG0)_36*%
%TO.N,Net-(U2-I4(TRIG0))*%
X263601200Y-211683600D03*
%TO.P,U2,37,I3(POT3)_37*%
%TO.N,Net-(J3-Pin_9)*%
X263601200Y-214223600D03*
%TO.P,U2,38,I2(POT2)_38*%
%TO.N,Net-(J3-Pin_5)*%
X263601200Y-216763600D03*
%TO.P,U2,39,I1(POT1)_39*%
%TO.N,Net-(J2-Pin_9)*%
X263601200Y-219303600D03*
%TO.P,U2,40,I0(POT0)_40*%
%TO.N,Net-(J2-Pin_5)*%
X263601200Y-221843600D03*
%TD*%
D17*
%TO.P,U1,1,~{RES}_1*%
%TO.N,Net-(U1-~{RES})*%
X241452400Y-241147600D03*
D11*
%TO.P,U1,2,VSS_2*%
%TO.N,GND*%
X243992400Y-241147600D03*
%TO.P,U1,3,RDY_3*%
%TO.N,Net-(U1-RDY)*%
X246532400Y-241147600D03*
%TO.P,U1,4,VCC_4*%
%TO.N,+5V*%
X249072400Y-241147600D03*
%TO.P,U1,5,A0_5*%
%TO.N,Net-(J6-Pin_8)*%
X251612400Y-241147600D03*
%TO.P,U1,6,A1_6*%
%TO.N,Net-(J6-Pin_7)*%
X254152400Y-241147600D03*
%TO.P,U1,7,A2_7*%
%TO.N,Net-(J6-Pin_6)*%
X256692400Y-241147600D03*
%TO.P,U1,8,A3_8*%
%TO.N,Net-(J6-Pin_5)*%
X259232400Y-241147600D03*
%TO.P,U1,9,A4_9*%
%TO.N,Net-(J6-Pin_4)*%
X261772400Y-241147600D03*
%TO.P,U1,10,A5_10*%
%TO.N,Net-(J6-Pin_3)*%
X264312400Y-241147600D03*
%TO.P,U1,11,A6_11*%
%TO.N,Net-(J6-Pin_2)*%
X266852400Y-241147600D03*
%TO.P,U1,12,A7_12*%
%TO.N,Net-(J6-Pin_1)*%
X269392400Y-241147600D03*
%TO.P,U1,13,A8_13*%
%TO.N,Net-(J6-Pin_22)*%
X271932400Y-241147600D03*
%TO.P,U1,14,A9_14*%
%TO.N,Net-(J6-Pin_21)*%
X274472400Y-241147600D03*
%TO.P,U1,15,A10_15*%
%TO.N,Net-(J6-Pin_19)*%
X274472400Y-225907600D03*
%TO.P,U1,16,A11_16*%
%TO.N,Net-(J6-Pin_20)*%
X271932400Y-225907600D03*
%TO.P,U1,17,A12_17*%
%TO.N,Net-(J6-Pin_18)*%
X269392400Y-225907600D03*
%TO.P,U1,18,D7_18*%
%TO.N,Net-(J6-Pin_17)*%
X266852400Y-225907600D03*
%TO.P,U1,19,D6_19*%
%TO.N,Net-(J6-Pin_16)*%
X264312400Y-225907600D03*
%TO.P,U1,20,D5_20*%
%TO.N,Net-(J6-Pin_15)*%
X261772400Y-225907600D03*
%TO.P,U1,21,D4_21*%
%TO.N,Net-(J6-Pin_14)*%
X259232400Y-225907600D03*
%TO.P,U1,22,D3_22*%
%TO.N,Net-(J6-Pin_13)*%
X256692400Y-225907600D03*
%TO.P,U1,23,D2_23*%
%TO.N,Net-(J6-Pin_11)*%
X254152400Y-225907600D03*
%TO.P,U1,24,D1_24*%
%TO.N,Net-(J6-Pin_10)*%
X251612400Y-225907600D03*
%TO.P,U1,25,D0_25*%
%TO.N,Net-(J6-Pin_9)*%
X249072400Y-225907600D03*
%TO.P,U1,26,R/~{W}_26*%
%TO.N,Net-(U1-R{slash}~{W})*%
X246532400Y-225907600D03*
%TO.P,U1,27,PHI0_27*%
%TO.N,Net-(U1-PHI0)*%
X243992400Y-225907600D03*
%TO.P,U1,28,PHI2_28*%
%TO.N,Net-(U1-PHI2)*%
X241452400Y-225907600D03*
%TD*%
D19*
%TO.P,Q1,1,E_1*%
%TO.N,+5V*%
X283718000Y-196443600D03*
D20*
%TO.P,Q1,2,B_2*%
%TO.N,Net-(Q1-B)*%
X284988000Y-196443600D03*
%TO.P,Q1,3,C_3*%
%TO.N,Net-(Q1-C)*%
X286258000Y-196443600D03*
%TD*%
D11*
%TO.P,R28,1*%
%TO.N,Net-(Q2-B)*%
X288239200Y-228701600D03*
%TO.P,R28,2*%
%TO.N,+5V*%
X295859200Y-228701600D03*
%TD*%
D21*
%TO.P,RV1,1,1_1*%
%TO.N,GND*%
X291642800Y-207590400D03*
%TO.P,RV1,2,2_2*%
%TO.N,Net-(U2-COLOR_ADJ)*%
X289142800Y-205090400D03*
%TO.P,RV1,3,3_3*%
%TO.N,Net-(D2-A)*%
X291642800Y-202590400D03*
%TD*%
D16*
%TO.P,D4,1,K_1*%
%TO.N,Net-(D4-K)*%
X285902400Y-211734400D03*
D11*
%TO.P,D4,2,A_2*%
%TO.N,Net-(D4-A)*%
X285902400Y-219354400D03*
%TD*%
D12*
%TO.P,C28,1*%
%TO.N,Net-(J3-Pin_9)*%
X198577200Y-205181200D03*
%TO.P,C28,2*%
%TO.N,GND*%
X206077200Y-205181200D03*
%TD*%
D13*
%TO.P,J7,1,Pin_1_1*%
%TO.N,Net-(J7-Pin_1)*%
X296000800Y-240548800D03*
D14*
%TO.P,J7,2,Pin_2_2*%
%TO.N,Net-(J7-Pin_2)*%
X296000800Y-243088800D03*
%TO.P,J7,3,Pin_3_3*%
%TO.N,Net-(J7-Pin_3)*%
X296000800Y-245628800D03*
%TD*%
D12*
%TO.P,C3,1*%
%TO.N,Net-(SW1-C)*%
X225022400Y-245516400D03*
%TO.P,C3,2*%
%TO.N,GND*%
X235022400Y-245516400D03*
%TD*%
D11*
%TO.P,C32,1*%
%TO.N,GND*%
X298845600Y-199898000D03*
%TO.P,C32,2*%
%TO.N,Net-(C32-Pad2)*%
X303845600Y-199898000D03*
%TD*%
D19*
%TO.P,Q2,1,E_1*%
%TO.N,Net-(J5-Pin_1)*%
X294233600Y-177241200D03*
D20*
%TO.P,Q2,2,B_2*%
%TO.N,Net-(Q2-B)*%
X295503600Y-177241200D03*
%TO.P,Q2,3,C_3*%
%TO.N,+5V*%
X296773600Y-177241200D03*
%TD*%
D11*
%TO.P,C35,1*%
%TO.N,Net-(U2-COLOR)*%
X283311600Y-182219600D03*
%TO.P,C35,2*%
%TO.N,Net-(C35-Pad2)*%
X288311600Y-182219600D03*
%TD*%
D12*
%TO.P,C2,1*%
%TO.N,Net-(D1-A)*%
X200567600Y-234594400D03*
%TO.P,C2,2*%
%TO.N,GND*%
X208067600Y-234594400D03*
%TD*%
D11*
%TO.P,C30,1*%
%TO.N,GND*%
X213198400Y-200609200D03*
%TO.P,C30,2*%
%TO.N,Net-(J3-Pin_6)*%
X208198400Y-200609200D03*
%TD*%
%TO.P,R29,1*%
%TO.N,Net-(Q2-B)*%
X291388800Y-225602800D03*
%TO.P,R29,2*%
%TO.N,GND*%
X299008800Y-225602800D03*
%TD*%
%TO.P,C9,1*%
%TO.N,Net-(U3-~{RES})*%
X242112800Y-190064400D03*
%TO.P,C9,2*%
%TO.N,GND*%
X242112800Y-185064400D03*
%TD*%
%TO.P,FB3,1*%
%TO.N,Net-(J6-Pin_12)*%
X244144800Y-170484800D03*
%TO.P,FB3,2*%
%TO.N,GND*%
X251764800Y-170484800D03*
%TD*%
%TO.P,R2,1*%
%TO.N,+5V*%
X254203200Y-246938800D03*
%TO.P,R2,2*%
%TO.N,Net-(U1-RDY)*%
X246583200Y-246938800D03*
%TD*%
%TO.P,C12,1*%
%TO.N,Net-(SW4-B)*%
X208534000Y-174040800D03*
%TO.P,C12,2*%
%TO.N,GND*%
X213534000Y-174040800D03*
%TD*%
%TO.P,R11,1*%
%TO.N,+5V*%
X276860000Y-161645600D03*
%TO.P,R11,2*%
%TO.N,Net-(J4-Pin_1)*%
X284480000Y-161645600D03*
%TD*%
%TO.P,C37,1*%
%TO.N,GND*%
X302688000Y-182219600D03*
%TO.P,C37,2*%
%TO.N,Net-(Q2-B)*%
X297688000Y-182219600D03*
%TD*%
D22*
%TO.P,R27,1*%
%TO.N,GND*%
X300837600Y-232816400D03*
%TO.P,R27,2*%
%TO.N,Net-(Q2-B)*%
X285597600Y-232816400D03*
%TD*%
D11*
%TO.P,C13,1*%
%TO.N,Net-(U3-PB1)*%
X226872800Y-166177600D03*
%TO.P,C13,2*%
%TO.N,GND*%
X226872800Y-161177600D03*
%TD*%
%TO.P,C14,1*%
%TO.N,GND*%
X226771200Y-170942000D03*
%TO.P,C14,2*%
%TO.N,Net-(U3-PB0)*%
X221771200Y-170942000D03*
%TD*%
D13*
%TO.P,J8,1,Pin_1_1*%
%TO.N,Net-(J8-Pin_1)*%
X286867600Y-240487200D03*
D14*
%TO.P,J8,2,Pin_2_2*%
%TO.N,Net-(J8-Pin_2)*%
X286867600Y-243027200D03*
%TO.P,J8,3,Pin_3_3*%
%TO.N,Net-(J8-Pin_3)*%
X286867600Y-245567200D03*
%TD*%
D11*
%TO.P,R12,1*%
%TO.N,Net-(C32-Pad2)*%
X296570400Y-195224400D03*
%TO.P,R12,2*%
%TO.N,Net-(Q1-B)*%
X288950400Y-195224400D03*
%TD*%
D15*
%TO.P,U3,1,VSS_1*%
%TO.N,GND*%
X223977200Y-174802800D03*
D11*
%TO.P,U3,2,A5_2*%
%TO.N,Net-(J6-Pin_3)*%
X223977200Y-177342800D03*
%TO.P,U3,3,A4_3*%
%TO.N,Net-(J6-Pin_4)*%
X223977200Y-179882800D03*
%TO.P,U3,4,A3_4*%
%TO.N,Net-(J6-Pin_5)*%
X223977200Y-182422800D03*
%TO.P,U3,5,A2_5*%
%TO.N,Net-(J6-Pin_6)*%
X223977200Y-184962800D03*
%TO.P,U3,6,A1_6*%
%TO.N,Net-(J6-Pin_7)*%
X223977200Y-187502800D03*
%TO.P,U3,7,A0_7*%
%TO.N,Net-(J6-Pin_8)*%
X223977200Y-190042800D03*
%TO.P,U3,8,PA0_8*%
%TO.N,Net-(J3-Pin_1)*%
X223977200Y-192582800D03*
%TO.P,U3,9,PA1_9*%
%TO.N,Net-(J3-Pin_2)*%
X223977200Y-195122800D03*
%TO.P,U3,10,PA2_10*%
%TO.N,Net-(J3-Pin_3)*%
X223977200Y-197662800D03*
%TO.P,U3,11,PA3_11*%
%TO.N,Net-(J3-Pin_4)*%
X223977200Y-200202800D03*
%TO.P,U3,12,PA4_12*%
%TO.N,Net-(J2-Pin_1)*%
X223977200Y-202742800D03*
%TO.P,U3,13,PA5_13*%
%TO.N,Net-(J2-Pin_2)*%
X223977200Y-205282800D03*
%TO.P,U3,14,PA6_14*%
%TO.N,Net-(J2-Pin_3)*%
X223977200Y-207822800D03*
%TO.P,U3,15,PA7_15*%
%TO.N,Net-(J2-Pin_4)*%
X223977200Y-210362800D03*
%TO.P,U3,16,PB7_16*%
%TO.N,Net-(SW2-B)*%
X223977200Y-212902800D03*
%TO.P,U3,17,PB6_17*%
%TO.N,Net-(SW3-B)*%
X223977200Y-215442800D03*
%TO.P,U3,18,PB5_18*%
%TO.N,unconnected-(U3-PB5-Pad18)*%
X223977200Y-217982800D03*
%TO.P,U3,19,PB4_19*%
%TO.N,unconnected-(U3-PB4-Pad19)*%
X223977200Y-220522800D03*
%TO.P,U3,20,VCC_20*%
%TO.N,+5V*%
X223977200Y-223062800D03*
%TO.P,U3,21,PB3_21*%
%TO.N,Net-(SW4-B)*%
X239217200Y-223062800D03*
%TO.P,U3,22,PB2_22*%
%TO.N,unconnected-(U3-PB2-Pad22)*%
X239217200Y-220522800D03*
%TO.P,U3,23,PB1_23*%
%TO.N,Net-(U3-PB1)*%
X239217200Y-217982800D03*
%TO.P,U3,24,PB0_24*%
%TO.N,Net-(U3-PB0)*%
X239217200Y-215442800D03*
%TO.P,U3,25,~{IRQ}_25*%
%TO.N,unconnected-(U3-~{IRQ}-Pad25)*%
X239217200Y-212902800D03*
%TO.P,U3,26,D7_26*%
%TO.N,Net-(J6-Pin_17)*%
X239217200Y-210362800D03*
%TO.P,U3,27,D6_27*%
%TO.N,Net-(J6-Pin_16)*%
X239217200Y-207822800D03*
%TO.P,U3,28,D5_28*%
%TO.N,Net-(J6-Pin_15)*%
X239217200Y-205282800D03*
%TO.P,U3,29,D4_29*%
%TO.N,Net-(J6-Pin_14)*%
X239217200Y-202742800D03*
%TO.P,U3,30,D3_30*%
%TO.N,Net-(J6-Pin_13)*%
X239217200Y-200202800D03*
%TO.P,U3,31,D2_31*%
%TO.N,Net-(J6-Pin_11)*%
X239217200Y-197662800D03*
%TO.P,U3,32,D1_32*%
%TO.N,Net-(J6-Pin_10)*%
X239217200Y-195122800D03*
%TO.P,U3,33,D0_33*%
%TO.N,Net-(J6-Pin_9)*%
X239217200Y-192582800D03*
%TO.P,U3,34,~{RES}_34*%
%TO.N,Net-(U3-~{RES})*%
X239217200Y-190042800D03*
%TO.P,U3,35,R/~{W}_35*%
%TO.N,Net-(U1-R{slash}~{W})*%
X239217200Y-187502800D03*
%TO.P,U3,36,~{RS}_36*%
%TO.N,Net-(J6-Pin_21)*%
X239217200Y-184962800D03*
%TO.P,U3,37,~{CS2}_37*%
%TO.N,Net-(J6-Pin_18)*%
X239217200Y-182422800D03*
%TO.P,U3,38,CS1_38*%
%TO.N,Net-(J6-Pin_1)*%
X239217200Y-179882800D03*
%TO.P,U3,39,PHI2_39*%
%TO.N,Net-(U1-PHI2)*%
X239217200Y-177342800D03*
%TO.P,U3,40,A6_40*%
%TO.N,Net-(J6-Pin_2)*%
X239217200Y-174802800D03*
%TD*%
%TO.P,C5,1*%
%TO.N,+5V*%
X231648000Y-241604800D03*
%TO.P,C5,2*%
%TO.N,GND*%
X231648000Y-236604800D03*
%TD*%
%TO.P,C23,1*%
%TO.N,GND*%
X203424800Y-187858400D03*
%TO.P,C23,2*%
%TO.N,Net-(D3-K)*%
X198424800Y-187858400D03*
%TD*%
D13*
%TO.P,SW4,1,A_1*%
%TO.N,unconnected-(SW4-A-Pad1)*%
X204165200Y-171805600D03*
D14*
%TO.P,SW4,2,B_2*%
%TO.N,Net-(SW4-B)*%
X201625200Y-171805600D03*
%TO.P,SW4,3,C_3*%
%TO.N,GND*%
X199085200Y-171805600D03*
%TD*%
D11*
%TO.P,R7,1*%
%TO.N,Net-(U2-I5(TRIG1))*%
X205984800Y-200609200D03*
%TO.P,R7,2*%
%TO.N,Net-(J3-Pin_6)*%
X198364800Y-200609200D03*
%TD*%
D13*
%TO.P,J6,1,Pin_1_1*%
%TO.N,Net-(J6-Pin_1)*%
X231495600Y-161899600D03*
D14*
%TO.P,J6,2,Pin_2_2*%
%TO.N,Net-(J6-Pin_2)*%
X231495600Y-164439600D03*
%TO.P,J6,3,Pin_3_3*%
%TO.N,Net-(J6-Pin_3)*%
X234035600Y-161899600D03*
%TO.P,J6,4,Pin_4_4*%
%TO.N,Net-(J6-Pin_4)*%
X234035600Y-164439600D03*
%TO.P,J6,5,Pin_5_5*%
%TO.N,Net-(J6-Pin_5)*%
X236575600Y-161899600D03*
%TO.P,J6,6,Pin_6_6*%
%TO.N,Net-(J6-Pin_6)*%
X236575600Y-164439600D03*
%TO.P,J6,7,Pin_7_7*%
%TO.N,Net-(J6-Pin_7)*%
X239115600Y-161899600D03*
%TO.P,J6,8,Pin_8_8*%
%TO.N,Net-(J6-Pin_8)*%
X239115600Y-164439600D03*
%TO.P,J6,9,Pin_9_9*%
%TO.N,Net-(J6-Pin_9)*%
X241655600Y-161899600D03*
%TO.P,J6,10,Pin_10_10*%
%TO.N,Net-(J6-Pin_10)*%
X241655600Y-164439600D03*
%TO.P,J6,11,Pin_11_11*%
%TO.N,Net-(J6-Pin_11)*%
X244195600Y-161899600D03*
%TO.P,J6,12,Pin_12_12*%
%TO.N,Net-(J6-Pin_12)*%
X244195600Y-164439600D03*
%TO.P,J6,13,Pin_13_13*%
%TO.N,Net-(J6-Pin_13)*%
X246735600Y-161899600D03*
%TO.P,J6,14,Pin_14_14*%
%TO.N,Net-(J6-Pin_14)*%
X246735600Y-164439600D03*
%TO.P,J6,15,Pin_15_15*%
%TO.N,Net-(J6-Pin_15)*%
X249275600Y-161899600D03*
%TO.P,J6,16,Pin_16_16*%
%TO.N,Net-(J6-Pin_16)*%
X249275600Y-164439600D03*
%TO.P,J6,17,Pin_17_17*%
%TO.N,Net-(J6-Pin_17)*%
X251815600Y-161899600D03*
%TO.P,J6,18,Pin_18_18*%
%TO.N,Net-(J6-Pin_18)*%
X251815600Y-164439600D03*
%TO.P,J6,19,Pin_19_19*%
%TO.N,Net-(J6-Pin_19)*%
X254355600Y-161899600D03*
%TO.P,J6,20,Pin_20_20*%
%TO.N,Net-(J6-Pin_20)*%
X254355600Y-164439600D03*
%TO.P,J6,21,Pin_21_21*%
%TO.N,Net-(J6-Pin_21)*%
X256895600Y-161899600D03*
%TO.P,J6,22,Pin_22_22*%
%TO.N,Net-(J6-Pin_22)*%
X256895600Y-164439600D03*
%TO.P,J6,23,Pin_23_23*%
%TO.N,Net-(J6-Pin_23)*%
X259435600Y-161899600D03*
%TO.P,J6,24,Pin_24_24*%
%TO.N,GND*%
X259435600Y-164439600D03*
%TD*%
D11*
%TO.P,C34,1*%
%TO.N,GND*%
X289407600Y-214753200D03*
%TO.P,C34,2*%
%TO.N,Net-(U2-COLOR_ADJ)*%
X289407600Y-209753200D03*
%TD*%
D15*
%TO.P,C7,1*%
%TO.N,Net-(U1-~{RES})*%
X241390800Y-245262400D03*
D11*
%TO.P,C7,2*%
%TO.N,GND*%
X243890800Y-245262400D03*
%TD*%
D13*
%TO.P,J5,1,Pin_1_1*%
%TO.N,Net-(J5-Pin_1)*%
X291134800Y-161594800D03*
%TD*%
D21*
%TO.P,RV3,1,1_1*%
%TO.N,Net-(J7-Pin_1)*%
X298998000Y-240548800D03*
%TO.P,RV3,2,2_2*%
%TO.N,Net-(J7-Pin_2)*%
X301498000Y-243048800D03*
%TO.P,RV3,3,3_3*%
%TO.N,Net-(J7-Pin_3)*%
X298998000Y-245548800D03*
%TD*%
D11*
%TO.P,C20,1*%
%TO.N,Net-(J3-Pin_3)*%
X198394000Y-191008000D03*
%TO.P,C20,2*%
%TO.N,GND*%
X203394000Y-191008000D03*
%TD*%
%TO.P,R14,1*%
%TO.N,+5V*%
X290931600Y-179120800D03*
%TO.P,R14,2*%
%TO.N,Net-(U2-COLOR)*%
X283311600Y-179120800D03*
%TD*%
%TO.P,C17,1*%
%TO.N,Net-(J2-Pin_3)*%
X215736800Y-174040800D03*
%TO.P,C17,2*%
%TO.N,GND*%
X220736800Y-174040800D03*
%TD*%
%TO.P,FB2,1*%
%TO.N,+5V*%
X272034000Y-161645600D03*
%TO.P,FB2,2*%
%TO.N,Net-(J6-Pin_23)*%
X264414000Y-161645600D03*
%TD*%
%TO.P,R23,1*%
%TO.N,Net-(U2-LUM0)*%
X286461200Y-192024000D03*
%TO.P,R23,2*%
%TO.N,+5V*%
X294081200Y-192024000D03*
%TD*%
%TO.P,R18,1*%
%TO.N,Net-(U2-LUM2)*%
X283768800Y-192481200D03*
%TO.P,R18,2*%
%TO.N,+5V*%
X283768800Y-184861200D03*
%TD*%
%TO.P,R15,1*%
%TO.N,+5V*%
X294030400Y-188366400D03*
%TO.P,R15,2*%
%TO.N,Net-(C35-Pad2)*%
X286410400Y-188366400D03*
%TD*%
%TO.P,C18,1*%
%TO.N,Net-(J2-Pin_4)*%
X221752800Y-210362800D03*
%TO.P,C18,2*%
%TO.N,GND*%
X216752800Y-210362800D03*
%TD*%
%TO.P,R6,1*%
%TO.N,+5V*%
X260756400Y-216763600D03*
%TO.P,R6,2*%
%TO.N,Net-(U2-I5(TRIG1))*%
X260756400Y-209143600D03*
%TD*%
%TO.P,R16,1*%
%TO.N,Net-(C35-Pad2)*%
X286410400Y-185318400D03*
%TO.P,R16,2*%
%TO.N,Net-(C36-Pad1)*%
X294030400Y-185318400D03*
%TD*%
%TO.P,C4,1*%
%TO.N,Net-(D3-K)*%
X228549200Y-241604800D03*
%TO.P,C4,2*%
%TO.N,GND*%
X228549200Y-236604800D03*
%TD*%
D13*
%TO.P,J1,1,Pin_1_1*%
%TO.N,Net-(D1-A)*%
X198831200Y-246532400D03*
D14*
%TO.P,J1,2,Pin_2_2*%
%TO.N,GND*%
X201371200Y-246532400D03*
%TD*%
D12*
%TO.P,SW6,1,1_1*%
%TO.N,GND*%
X217271600Y-161616000D03*
X223771600Y-161616000D03*
%TO.P,SW6,2,2_2*%
%TO.N,Net-(U3-PB1)*%
X217271600Y-166116000D03*
X223771600Y-166116000D03*
%TD*%
D11*
%TO.P,R4,1*%
%TO.N,+5V*%
X257657600Y-216763600D03*
%TO.P,R4,2*%
%TO.N,Net-(U2-I4(TRIG0))*%
X257657600Y-209143600D03*
%TD*%
D23*
%TO.P,U4,1,IN_1*%
%TO.N,Net-(SW1-C)*%
X215849200Y-247024800D03*
D24*
%TO.P,U4,2,GND_2*%
%TO.N,GND*%
X218389200Y-247024800D03*
%TO.P,U4,3,OUT_3*%
%TO.N,Net-(D3-K)*%
X220929200Y-247024800D03*
%TD*%
D11*
%TO.P,C24,1*%
%TO.N,GND*%
X203354000Y-209499200D03*
%TO.P,C24,2*%
%TO.N,Net-(D3-K)*%
X198354000Y-209499200D03*
%TD*%
D13*
%TO.P,SW1,1,A_1*%
%TO.N,unconnected-(SW1-A-Pad1)*%
X194868800Y-246583200D03*
D14*
%TO.P,SW1,2,B_2*%
%TO.N,Net-(D1-K)*%
X194868800Y-244043200D03*
%TO.P,SW1,3,C_3*%
%TO.N,Net-(SW1-C)*%
X194868800Y-241503200D03*
%TD*%
D12*
%TO.P,SW5,1,1_1*%
%TO.N,GND*%
X207622000Y-161616000D03*
X214122000Y-161616000D03*
%TO.P,SW5,2,2_2*%
%TO.N,Net-(U3-PB0)*%
X207622000Y-166116000D03*
X214122000Y-166116000D03*
%TD*%
D11*
%TO.P,C15,1*%
%TO.N,Net-(J2-Pin_1)*%
X216763600Y-202742800D03*
%TO.P,C15,2*%
%TO.N,GND*%
X221763600Y-202742800D03*
%TD*%
%TO.P,C21,1*%
%TO.N,Net-(J3-Pin_2)*%
X221752800Y-195122800D03*
%TO.P,C21,2*%
%TO.N,GND*%
X216752800Y-195122800D03*
%TD*%
D12*
%TO.P,C26,1*%
%TO.N,Net-(J2-Pin_9)*%
X198637200Y-183540400D03*
%TO.P,C26,2*%
%TO.N,GND*%
X206137200Y-183540400D03*
%TD*%
D11*
%TO.P,FB1,1*%
%TO.N,Net-(D3-K)*%
X225298000Y-241604800D03*
%TO.P,FB1,2*%
%TO.N,+5V*%
X225298000Y-233984800D03*
%TD*%
%TO.P,R20,1*%
%TO.N,Net-(D4-K)*%
X291388800Y-222554800D03*
%TO.P,R20,2*%
%TO.N,+5V*%
X299008800Y-222554800D03*
%TD*%
%TO.P,C1,1*%
%TO.N,Net-(D1-A)*%
X194310000Y-230570400D03*
%TO.P,C1,2*%
%TO.N,GND*%
X194310000Y-235570400D03*
%TD*%
%TO.P,R5,1*%
%TO.N,Net-(U2-I4(TRIG0))*%
X208991200Y-184302400D03*
%TO.P,R5,2*%
%TO.N,Net-(J2-Pin_6)*%
X208991200Y-176682400D03*
%TD*%
%TO.P,R13,1*%
%TO.N,Net-(SW1-C)*%
X296824400Y-210210400D03*
%TO.P,R13,2*%
%TO.N,Net-(D2-A)*%
X296824400Y-202590400D03*
%TD*%
%TO.P,R24,1*%
%TO.N,Net-(D5-A)*%
X281482800Y-229108000D03*
%TO.P,R24,2*%
%TO.N,Net-(Q2-B)*%
X281482800Y-241808000D03*
%TD*%
D17*
%TO.P,D2,1,K_1*%
%TO.N,Net-(D2-K)*%
X294030400Y-210210400D03*
D11*
%TO.P,D2,2,A_2*%
%TO.N,Net-(D2-A)*%
X294030400Y-202590400D03*
%TD*%
D21*
%TO.P,RV2,1,1_1*%
%TO.N,Net-(J8-Pin_1)*%
X290006400Y-240578000D03*
%TO.P,RV2,2,2_2*%
%TO.N,Net-(J8-Pin_2)*%
X292506400Y-243078000D03*
%TO.P,RV2,3,3_3*%
%TO.N,Net-(J8-Pin_3)*%
X290006400Y-245578000D03*
%TD*%
D13*
%TO.P,J4,1,Pin_1_1*%
%TO.N,Net-(J4-Pin_1)*%
X287426400Y-161594800D03*
%TD*%
D25*
%TO.P,Y1,1,1_1*%
%TO.N,Net-(C32-Pad2)*%
X300826800Y-195224400D03*
%TO.P,Y1,2,2_2*%
%TO.N,Net-(C33-Pad1)*%
X305826800Y-195224400D03*
%TD*%
D26*
%TO.N,Net-(J6-Pin_16)*%
X249844000Y-204383471D03*
%TO.N,Net-(Q1-C)*%
X281893000Y-194546135D03*
%TO.N,Net-(J6-Pin_15)*%
X275072400Y-206248000D03*
%TO.N,Net-(J6-Pin_4)*%
X253492000Y-191516000D03*
X231648000Y-172720000D03*
X253492000Y-174244000D03*
X220980000Y-186944000D03*
X231140000Y-187452000D03*
%TO.N,Net-(U1-PHI2)*%
X265176000Y-180340000D03*
%TO.N,Net-(J6-Pin_6)*%
X230124000Y-178816000D03*
X229616000Y-184912000D03*
X256540000Y-179324000D03*
%TO.N,Net-(J6-Pin_8)*%
X234696000Y-211836000D03*
X250512400Y-211836000D03*
%TO.N,Net-(J6-Pin_5)*%
X219456000Y-195072000D03*
%TO.N,Net-(J6-Pin_18)*%
X261620000Y-182972000D03*
%TO.N,Net-(J6-Pin_1)*%
X240792000Y-173736000D03*
%TO.N,Net-(J6-Pin_7)*%
X256032000Y-180848000D03*
%TO.N,Net-(J6-Pin_14)*%
X251460000Y-202692000D03*
X251460000Y-182372000D03*
%TO.N,Net-(J6-Pin_13)*%
X248412000Y-200152000D03*
%TO.N,Net-(J6-Pin_17)*%
X249428000Y-210312000D03*
%TO.N,Net-(J6-Pin_16)*%
X247904000Y-207772000D03*
%TO.N,Net-(J6-Pin_18)*%
X253492000Y-171196000D03*
%TO.N,Net-(J6-Pin_14)*%
X248920000Y-181356000D03*
%TO.N,Net-(J6-Pin_10)*%
X247904000Y-189923600D03*
%TO.N,Net-(J6-Pin_21)*%
X261112000Y-170180000D03*
X251460000Y-175260000D03*
X242824000Y-175260000D03*
X262128000Y-168656000D03*
%TO.N,Net-(J6-Pin_17)*%
X249428000Y-205740000D03*
%TO.N,Net-(J6-Pin_15)*%
X266192000Y-163649600D03*
%TO.N,Net-(J6-Pin_11)*%
X232664000Y-197612000D03*
%TO.N,Net-(U1-R{slash}~{W})*%
X238252000Y-183896000D03*
%TO.N,Net-(J6-Pin_9)*%
X246888000Y-192532000D03*
%TO.N,Net-(J6-Pin_3)*%
X257556000Y-169164000D03*
%TO.N,Net-(J6-Pin_1)*%
X237744000Y-167132000D03*
%TO.N,Net-(J6-Pin_2)*%
X230724000Y-170688000D03*
%TO.N,Net-(U2-I4(TRIG0))*%
X211836000Y-207772000D03*
X211836000Y-184404000D03*
%TO.N,Net-(J6-Pin_8)*%
X234696000Y-189992000D03*
%TO.N,Net-(J6-Pin_7)*%
X229200000Y-168656000D03*
X227584000Y-182372000D03*
%TO.N,Net-(J6-Pin_5)*%
X227686556Y-174760938D03*
%TO.N,Net-(J6-Pin_4)*%
X230124000Y-163576000D03*
X227076000Y-174244000D03*
%TO.N,Net-(SW2-B)*%
X210972400Y-213106000D03*
%TO.N,Net-(J3-Pin_5)*%
X198120000Y-203200000D03*
%TO.N,Net-(J2-Pin_5)*%
X217779600Y-218998800D03*
%TO.N,Net-(J3-Pin_3)*%
X225653600Y-193802000D03*
%TO.N,Net-(J3-Pin_9)*%
X261975600Y-218694000D03*
X260096000Y-227939600D03*
%TO.N,Net-(SW3-B)*%
X213360000Y-213502800D03*
%TO.N,Net-(J2-Pin_1)*%
X216001600Y-167843200D03*
%TO.N,Net-(J2-Pin_2)*%
X220268800Y-168554400D03*
%TO.N,Net-(J2-Pin_3)*%
X218440000Y-208280000D03*
X215900000Y-168656000D03*
%TO.N,Net-(J2-Pin_4)*%
X208026000Y-211480400D03*
%TO.N,Net-(J2-Pin_9)*%
X266242800Y-187960000D03*
X266012400Y-219354400D03*
%TO.N,Net-(U1-PHI0)*%
X276379200Y-227228400D03*
%TO.N,Net-(J6-Pin_9)*%
X241604800Y-192633600D03*
X241295851Y-223728179D03*
%TO.N,Net-(J6-Pin_10)*%
X241808000Y-195122800D03*
X241808000Y-223113600D03*
%TO.N,Net-(J6-Pin_11)*%
X242417600Y-197662800D03*
X242461513Y-222561687D03*
%TO.N,Net-(J6-Pin_13)*%
X243078000Y-200202800D03*
X243027200Y-221996000D03*
%TO.N,Net-(J6-Pin_14)*%
X243789200Y-221335600D03*
X243840000Y-202742800D03*
%TO.N,Net-(J6-Pin_15)*%
X244492400Y-205333600D03*
X244449600Y-220726000D03*
%TO.N,Net-(J6-Pin_18)*%
X269138400Y-181203600D03*
%TO.N,Net-(U1-R{slash}~{W})*%
X236880400Y-187553600D03*
X237032800Y-224383600D03*
%TO.N,Net-(U1-PHI2)*%
X236626400Y-225907600D03*
X236270800Y-177342800D03*
%TO.N,Net-(J6-Pin_6)*%
X261366000Y-196697600D03*
%TO.N,Net-(J6-Pin_7)*%
X258521200Y-198374000D03*
%TO.N,Net-(J6-Pin_8)*%
X254203200Y-201574400D03*
%TO.N,Net-(J6-Pin_16)*%
X270510000Y-224180400D03*
X270459200Y-204063600D03*
%TO.N,Net-(J6-Pin_17)*%
X266903200Y-206603600D03*
%TO.N,Net-(U2-I5(TRIG1))*%
X260858000Y-202184000D03*
%TO.N,Net-(J6-Pin_2)*%
X240741200Y-239471200D03*
%TO.N,Net-(J6-Pin_21)*%
X241452400Y-238861600D03*
%TO.N,Net-(J6-Pin_19)*%
X274370800Y-160578800D03*
%TO.N,Net-(SW4-B)*%
X209346800Y-212598000D03*
%TO.N,Net-(U3-PB1)*%
X233680000Y-167640000D03*
X235670800Y-218033600D03*
%TO.N,Net-(U3-PB0)*%
X228600000Y-218440000D03*
%TD*%
%TO.N,Net-(D4-K)*%
D10*
X285902400Y-211734400D02*
X284853200Y-212783600D01*
X284853200Y-212783600D02*
X279941200Y-212783600D01*
X279941200Y-212783600D02*
X278841200Y-211683600D01*
%TO.N,Net-(D2-K)*%
X294030400Y-210210400D02*
X294030400Y-212344000D01*
%TO.N,Net-(Q1-C)*%
X280738665Y-194546135D02*
X278841200Y-196443600D01*
X281893000Y-194546135D02*
X280738665Y-194546135D01*
%TO.N,Net-(J6-Pin_15)*%
X275072400Y-179892400D02*
X275072400Y-206248000D01*
X278841200Y-176123600D02*
X275072400Y-179892400D01*
%TO.N,Net-(J6-Pin_4)*%
X231140000Y-173228000D02*
X231140000Y-187452000D01*
X231648000Y-172720000D02*
X231140000Y-173228000D01*
X253492000Y-191516000D02*
X253492000Y-174244000D01*
X220980000Y-186944000D02*
X220980000Y-185928000D01*
X220980000Y-185928000D02*
X223385200Y-183522800D01*
X223385200Y-183522800D02*
X224432835Y-183522800D01*
X224432835Y-183522800D02*
X225077200Y-182878435D01*
X225077200Y-182878435D02*
X225077200Y-180982800D01*
X225077200Y-180982800D02*
X223977200Y-179882800D01*
%TO.N,Net-(U1-PHI2)*%
X265176000Y-180340000D02*
X265176000Y-184708800D01*
X265176000Y-184708800D02*
X263601200Y-186283600D01*
%TO.N,Net-(J6-Pin_6)*%
X256632000Y-192732000D02*
X256632000Y-179416000D01*
X255252400Y-202811200D02*
X259121200Y-198942400D01*
X230124000Y-178816000D02*
X230124000Y-184404000D01*
X259121200Y-198942400D02*
X259121200Y-195221200D01*
X259121200Y-195221200D02*
X256632000Y-192732000D01*
X230124000Y-184404000D02*
X229616000Y-184912000D01*
X256632000Y-179416000D02*
X256540000Y-179324000D01*
%TO.N,Net-(J6-Pin_8)*%
X234696000Y-189992000D02*
X234696000Y-211836000D01*
X250512400Y-211836000D02*
X250512400Y-205265200D01*
%TO.N,Net-(J6-Pin_5)*%
X221437200Y-182422800D02*
X223977200Y-182422800D01*
X219456000Y-195072000D02*
X219456000Y-184404000D01*
X219456000Y-184404000D02*
X221437200Y-182422800D01*
%TO.N,Net-(J6-Pin_18)*%
X261832800Y-182972000D02*
X263601200Y-181203600D01*
X261620000Y-182972000D02*
X261832800Y-182972000D01*
%TO.N,Net-(J6-Pin_1)*%
X240792000Y-170180000D02*
X240792000Y-173736000D01*
%TO.N,Net-(J6-Pin_7)*%
X256032000Y-180848000D02*
X256032000Y-195884800D01*
X256032000Y-195884800D02*
X258521200Y-198374000D01*
%TO.N,Net-(J6-Pin_14)*%
X251460000Y-202692000D02*
X251460000Y-182372000D01*
%TO.N,Net-(J6-Pin_13)*%
X248504000Y-189675071D02*
X248504000Y-200060000D01*
X248320000Y-189491071D02*
X248504000Y-189675071D01*
X248320000Y-175649949D02*
X248320000Y-189491071D01*
X248504000Y-200060000D02*
X248412000Y-200152000D01*
X245585600Y-172915549D02*
X248320000Y-175649949D01*
X245585600Y-163049600D02*
X245585600Y-172915549D01*
X246735600Y-161899600D02*
X245585600Y-163049600D01*
%TO.N,Net-(J6-Pin_17)*%
X249428000Y-205740000D02*
X249428000Y-210312000D01*
%TO.N,Net-(J6-Pin_16)*%
X247904000Y-206415471D02*
X247904000Y-207772000D01*
X249936000Y-204383471D02*
X247904000Y-206415471D01*
X249936000Y-165100000D02*
X249936000Y-204383471D01*
X249275600Y-164439600D02*
X249936000Y-165100000D01*
%TO.N,Net-(J6-Pin_18)*%
X253492000Y-166116000D02*
X253492000Y-171196000D01*
X251815600Y-164439600D02*
X253492000Y-166116000D01*
%TO.N,Net-(J6-Pin_14)*%
X248920000Y-166624000D02*
X248920000Y-181356000D01*
X246735600Y-164439600D02*
X248920000Y-166624000D01*
%TO.N,Net-(J6-Pin_10)*%
X241655600Y-164439600D02*
X241655600Y-169551235D01*
X241655600Y-169551235D02*
X247904000Y-175799635D01*
X247904000Y-175799635D02*
X247904000Y-189923600D01*
%TO.N,Net-(J6-Pin_21)*%
X258064000Y-163068000D02*
X262128000Y-163068000D01*
X262128000Y-163068000D02*
X262128000Y-168656000D01*
X242824000Y-175260000D02*
X242824000Y-181356000D01*
X251460000Y-174411471D02*
X251460000Y-175260000D01*
X256895600Y-161899600D02*
X258064000Y-163068000D01*
X261112000Y-170180000D02*
X259496000Y-168564000D01*
X259496000Y-168564000D02*
X257307471Y-168564000D01*
X257307471Y-168564000D02*
X251460000Y-174411471D01*
X242824000Y-181356000D02*
X239217200Y-184962800D01*
%TO.N,Net-(J6-Pin_17)*%
X250444000Y-204724000D02*
X249428000Y-205740000D01*
X250444000Y-163271200D02*
X250444000Y-204724000D01*
X251815600Y-161899600D02*
X250444000Y-163271200D01*
%TO.N,Net-(J6-Pin_15)*%
X266192000Y-161867965D02*
X264852035Y-160528000D01*
X266192000Y-163649600D02*
X266192000Y-161867965D01*
X264852035Y-160528000D02*
X250444000Y-160528000D01*
X250444000Y-160528000D02*
X250444000Y-160731200D01*
X250444000Y-160731200D02*
X249275600Y-161899600D01*
%TO.N,Net-(J6-Pin_11)*%
X237965600Y-163963254D02*
X237965600Y-165023914D01*
X244195600Y-161899600D02*
X243045600Y-160749600D01*
X233431471Y-167040000D02*
X233080000Y-167391471D01*
X233080000Y-197196000D02*
X232664000Y-197612000D01*
X237965600Y-165023914D02*
X235949514Y-167040000D01*
X239591946Y-163289600D02*
X238639254Y-163289600D01*
X241179254Y-160749600D02*
X240505600Y-161423254D01*
X238639254Y-163289600D02*
X237965600Y-163963254D01*
X240505600Y-162375946D02*
X239591946Y-163289600D01*
X233080000Y-167391471D02*
X233080000Y-197196000D01*
X235949514Y-167040000D02*
X233431471Y-167040000D01*
X240505600Y-161423254D02*
X240505600Y-162375946D01*
X243045600Y-160749600D02*
X241179254Y-160749600D01*
%TO.N,Net-(J6-Pin_12)*%
X244144800Y-170484800D02*
X244144800Y-164490400D01*
X244144800Y-164490400D02*
X244195600Y-164439600D01*
%TO.N,Net-(U1-R{slash}~{W})*%
X238117200Y-186402800D02*
X239217200Y-187502800D01*
X238252000Y-183896000D02*
X238117200Y-184030800D01*
X238117200Y-184030800D02*
X238117200Y-186402800D01*
%TO.N,Net-(J6-Pin_9)*%
X246888000Y-175710314D02*
X246888000Y-192532000D01*
X240505600Y-169327914D02*
X246888000Y-175710314D01*
X240505600Y-163049600D02*
X240505600Y-169327914D01*
X241655600Y-161899600D02*
X240505600Y-163049600D01*
%TO.N,Net-(J6-Pin_3)*%
X258216400Y-188823600D02*
X263601200Y-188823600D01*
X257556000Y-169164000D02*
X257556000Y-188976000D01*
X257556000Y-188976000D02*
X258064000Y-188976000D01*
X258064000Y-188976000D02*
X258216400Y-188823600D01*
%TO.N,Net-(J6-Pin_1)*%
X240792000Y-173736000D02*
X240792000Y-179324000D01*
X237744000Y-167132000D02*
X240792000Y-170180000D01*
X240792000Y-179324000D02*
X239776000Y-179324000D01*
X239776000Y-179324000D02*
X239217200Y-179882800D01*
%TO.N,Net-(J6-Pin_2)*%
X231495600Y-164439600D02*
X231495600Y-169916400D01*
X231495600Y-169916400D02*
X230724000Y-170688000D01*
%TO.N,Net-(U2-I4(TRIG0))*%
X211836000Y-184404000D02*
X211836000Y-207772000D01*
%TO.N,Net-(J6-Pin_8)*%
X234696000Y-189992000D02*
X234696000Y-168859200D01*
X234696000Y-168859200D02*
X239115600Y-164439600D01*
%TO.N,Net-(J6-Pin_7)*%
X223977200Y-187502800D02*
X227584000Y-183896000D01*
X237965600Y-160749600D02*
X239115600Y-161899600D01*
X227584000Y-183896000D02*
X227584000Y-182372000D01*
X229200000Y-168656000D02*
X229200000Y-161895200D01*
X229200000Y-161895200D02*
X230345600Y-160749600D01*
X230345600Y-160749600D02*
X237965600Y-160749600D01*
%TO.N,Net-(J6-Pin_5)*%
X235425600Y-163049600D02*
X236575600Y-161899600D01*
X227686556Y-174760938D02*
X232645600Y-169801894D01*
X232645600Y-169801894D02*
X232645600Y-164203254D01*
X232645600Y-164203254D02*
X233799254Y-163049600D01*
X233799254Y-163049600D02*
X235425600Y-163049600D01*
%TO.N,Net-(J6-Pin_4)*%
X227076000Y-174244000D02*
X230124000Y-171196000D01*
X230124000Y-171196000D02*
X230124000Y-163576000D01*
%TO.N,Net-(D5-K)*%
X289917165Y-222638800D02*
X290933165Y-223654800D01*
X284716400Y-222638800D02*
X289917165Y-222638800D01*
X278841200Y-219303600D02*
X281381200Y-219303600D01*
X290933165Y-223654800D02*
X293133600Y-223654800D01*
X281381200Y-219303600D02*
X284716400Y-222638800D01*
X293133600Y-223654800D02*
X296824400Y-219964000D01*
%TO.N,Net-(SW2-B)*%
X210972400Y-174508800D02*
X210972400Y-213106000D01*
X201625200Y-166827200D02*
X205740000Y-170942000D01*
X207405600Y-170942000D02*
X210972400Y-174508800D01*
X205740000Y-170942000D02*
X207405600Y-170942000D01*
%TO.N,Net-(C33-Pad1)*%
X306059200Y-199898000D02*
X306059200Y-195456800D01*
X310540400Y-190510800D02*
X310540400Y-189636400D01*
X306059200Y-195456800D02*
X305826800Y-195224400D01*
X305826800Y-195224400D02*
X310540400Y-190510800D01*
%TO.N,Net-(Q1-C)*%
X310540400Y-197256400D02*
X304528400Y-203268400D01*
X294112835Y-198323200D02*
X288950400Y-198323200D01*
X309959200Y-197837600D02*
X310540400Y-197256400D01*
X303884035Y-205976400D02*
X301766035Y-205976400D01*
X311048400Y-204876400D02*
X309959200Y-203787200D01*
X287070800Y-196443600D02*
X288950400Y-198323200D01*
X301766035Y-205976400D02*
X294112835Y-198323200D01*
X286258000Y-196443600D02*
X287070800Y-196443600D01*
X304528400Y-205332035D02*
X303884035Y-205976400D01*
X309959200Y-203787200D02*
X309959200Y-197837600D01*
X304528400Y-203268400D02*
X304528400Y-205332035D01*
%TO.N,Net-(U2-LUM0)*%
X277741200Y-202963600D02*
X277741200Y-198527965D01*
X285818400Y-191381200D02*
X286461200Y-192024000D01*
X279773200Y-197543600D02*
X282493000Y-194823800D01*
X278841200Y-204063600D02*
X277741200Y-202963600D01*
X282493000Y-192201365D02*
X283313165Y-191381200D01*
X282092400Y-204063600D02*
X278841200Y-204063600D01*
X278725565Y-197543600D02*
X279773200Y-197543600D01*
X282493000Y-194823800D02*
X282493000Y-192201365D01*
X277741200Y-198527965D02*
X278725565Y-197543600D01*
X283313165Y-191381200D02*
X285818400Y-191381200D01*
%TO.N,Net-(Q2-B)*%
X285648400Y-232765600D02*
X285597600Y-232816400D01*
X282905200Y-211683600D02*
X285242000Y-209346800D01*
X285648400Y-229158800D02*
X287782000Y-229158800D01*
X282092400Y-211683600D02*
X282905200Y-211683600D01*
X287782000Y-229158800D02*
X288239200Y-228701600D01*
X285648400Y-229158800D02*
X285648400Y-232765600D01*
X295503600Y-182219600D02*
X297688000Y-182219600D01*
X285597600Y-232816400D02*
X281482800Y-236931200D01*
X291338000Y-225602800D02*
X291388800Y-225602800D01*
X281482800Y-236931200D02*
X281482800Y-241808000D01*
X288239200Y-228701600D02*
X291338000Y-225602800D01*
X295503600Y-182219600D02*
X295503600Y-177241200D01*
%TO.N,Net-(C32-Pad2)*%
X300826800Y-196879200D02*
X303845600Y-199898000D01*
X303428400Y-204876400D02*
X303428400Y-200315200D01*
X300826800Y-195224400D02*
X300826800Y-196879200D01*
X296570400Y-195224400D02*
X300826800Y-195224400D01*
X303428400Y-200315200D02*
X303845600Y-199898000D01*
%TO.N,Net-(D5-A)*%
X278079200Y-229108000D02*
X281482800Y-229108000D01*
X281381200Y-226923600D02*
X281381200Y-229006400D01*
X281381200Y-229006400D02*
X281482800Y-229108000D01*
%TO.N,Net-(U1-~{RES})*%
X241452400Y-245200800D02*
X241390800Y-245262400D01*
X237744000Y-241147600D02*
X241452400Y-241147600D01*
X241452400Y-241147600D02*
X241452400Y-245200800D01*
%TO.N,Net-(U2-LUM2)*%
X282893000Y-193357000D02*
X282893000Y-199377800D01*
X283768800Y-192481200D02*
X282893000Y-193357000D01*
X282893000Y-199377800D02*
X285242000Y-201726800D01*
%TO.N,Net-(J3-Pin_5)*%
X198120000Y-203200000D02*
X197264800Y-202344800D01*
X194564000Y-198221600D02*
X196697600Y-196088000D01*
X197264800Y-202344800D02*
X197264800Y-200922400D01*
X196697600Y-196088000D02*
X198577200Y-196088000D01*
X197264800Y-200922400D02*
X194564000Y-198221600D01*
%TO.N,Net-(J2-Pin_5)*%
X199937200Y-179261600D02*
X199937200Y-204240129D01*
X194513200Y-172059600D02*
X198628000Y-176174400D01*
X198628000Y-177952400D02*
X199937200Y-179261600D01*
X214695871Y-218998800D02*
X217779600Y-218998800D01*
X198628000Y-176174400D02*
X198628000Y-177952400D01*
X199937200Y-204240129D02*
X214695871Y-218998800D01*
%TO.N,Net-(D4-A)*%
X285902400Y-221284800D02*
X285648400Y-221538800D01*
X288747200Y-216966800D02*
X286359600Y-219354400D01*
X285902400Y-219354400D02*
X285902400Y-221284800D01*
X286359600Y-219354400D02*
X285902400Y-219354400D01*
%TO.N,Net-(J3-Pin_3)*%
X196748400Y-191008000D02*
X198394000Y-191008000D01*
X225653600Y-195986400D02*
X223977200Y-197662800D01*
X194564000Y-193141600D02*
X194614800Y-193141600D01*
X225653600Y-193802000D02*
X225653600Y-195986400D01*
X194614800Y-193141600D02*
X196748400Y-191008000D01*
%TO.N,Net-(D3-K)*%
X193132000Y-177139600D02*
X194513200Y-177139600D01*
X220929200Y-245973600D02*
X225298000Y-241604800D01*
X198354000Y-209499200D02*
X198354000Y-207091600D01*
X225298000Y-241604800D02*
X198354000Y-214660800D01*
X225298000Y-241604800D02*
X228549200Y-241604800D01*
X220929200Y-247024800D02*
X220929200Y-245973600D01*
X198354000Y-214660800D02*
X198354000Y-209499200D01*
X194513200Y-177139600D02*
X195663200Y-178289600D01*
X194564000Y-203301600D02*
X192979600Y-201717200D01*
X198354000Y-207091600D02*
X194564000Y-203301600D01*
X192979600Y-201717200D02*
X192979600Y-177292000D01*
X195663200Y-185096800D02*
X198424800Y-187858400D01*
X192979600Y-177292000D02*
X193132000Y-177139600D01*
X195663200Y-178289600D02*
X195663200Y-185096800D01*
%TO.N,Net-(J3-Pin_9)*%
X260332400Y-227703200D02*
X260332400Y-220337200D01*
X260332400Y-220337200D02*
X261975600Y-218694000D01*
X260096000Y-227939600D02*
X260332400Y-227703200D01*
%TO.N,Net-(C36-Pad1)*%
X290503600Y-182219600D02*
X293602400Y-185318400D01*
X293602400Y-185318400D02*
X294030400Y-185318400D01*
%TO.N,Net-(SW3-B)*%
X204541600Y-164816000D02*
X208453200Y-164816000D01*
X214579200Y-170942000D02*
X214634000Y-170996800D01*
X214634000Y-212228800D02*
X213360000Y-213502800D01*
X201625200Y-161899600D02*
X204541600Y-164816000D01*
X208453200Y-164816000D02*
X214579200Y-170942000D01*
X214634000Y-170996800D02*
X214634000Y-212228800D01*
%TO.N,Net-(D1-K)*%
X201625200Y-244043200D02*
X204622400Y-247040400D01*
X194868800Y-244043200D02*
X201625200Y-244043200D01*
%TO.N,Net-(D1-A)*%
X212242400Y-248310400D02*
X212242400Y-247040400D01*
X198831200Y-246532400D02*
X198831200Y-247345200D01*
X211886800Y-248666000D02*
X212242400Y-248310400D01*
X200202800Y-248716800D02*
X211886800Y-248716800D01*
X211886800Y-248716800D02*
X211886800Y-248666000D01*
X196543600Y-230570400D02*
X200567600Y-234594400D01*
X198831200Y-247345200D02*
X200202800Y-248716800D01*
X194310000Y-230570400D02*
X196543600Y-230570400D01*
%TO.N,Net-(J2-Pin_1)*%
X215642000Y-201621200D02*
X216763600Y-202742800D01*
X216836800Y-168678400D02*
X216836800Y-190373565D01*
X216836800Y-190373565D02*
X215642000Y-191568365D01*
X215642000Y-191568365D02*
X215642000Y-201621200D01*
X216001600Y-167843200D02*
X216836800Y-168678400D01*
%TO.N,Net-(J2-Pin_2)*%
X220268800Y-168554400D02*
X217863600Y-170959600D01*
X217863600Y-201901600D02*
X221752800Y-205790800D01*
X217863600Y-170959600D02*
X217863600Y-201901600D01*
%TO.N,Net-(J2-Pin_3)*%
X215034000Y-174743600D02*
X215034000Y-205627635D01*
X218440000Y-208280000D02*
X217686365Y-208280000D01*
X215736800Y-174040800D02*
X215034000Y-174743600D01*
X215736800Y-168819200D02*
X215736800Y-174040800D01*
X215034000Y-205627635D02*
X217686365Y-208280000D01*
X215900000Y-168656000D02*
X215736800Y-168819200D01*
%TO.N,Net-(J2-Pin_4)*%
X207891200Y-182897600D02*
X207891200Y-199347165D01*
X208026000Y-205291522D02*
X208026000Y-211480400D01*
X194513200Y-169519600D02*
X207891200Y-182897600D01*
X207891200Y-199347165D02*
X207084800Y-200153565D01*
X207084800Y-204350322D02*
X208026000Y-205291522D01*
X207084800Y-200153565D02*
X207084800Y-204350322D01*
%TO.N,Net-(J2-Pin_9)*%
X266242800Y-219124000D02*
X266012400Y-219354400D01*
X266242800Y-187960000D02*
X266242800Y-219124000D01*
%TO.N,Net-(U1-RDY)*%
X276979200Y-218625600D02*
X278841200Y-216763600D01*
X246532400Y-241147600D02*
X246532400Y-246888000D01*
X247632400Y-242247600D02*
X274928035Y-242247600D01*
X246532400Y-246888000D02*
X246583200Y-246938800D01*
X276979200Y-240196435D02*
X276979200Y-218625600D01*
X246532400Y-241147600D02*
X247632400Y-242247600D01*
X274928035Y-242247600D02*
X276979200Y-240196435D01*
%TO.N,Net-(U1-PHI0)*%
X276379200Y-216685600D02*
X278841200Y-214223600D01*
X276379200Y-227228400D02*
X276379200Y-216685600D01*
%TO.N,Net-(D4-K)*%
X285902400Y-211734400D02*
X285902400Y-213258400D01*
X291388800Y-218052765D02*
X291388800Y-222554800D01*
X288510800Y-215866800D02*
X289202835Y-215866800D01*
X289202835Y-215866800D02*
X291388800Y-218052765D01*
X285902400Y-213258400D02*
X288510800Y-215866800D01*
%TO.N,Net-(U2-COLOR)*%
X283311600Y-179120800D02*
X283311600Y-182219600D01*
%TO.N,Net-(U2-COLOR_ADJ)*%
X278841200Y-198983600D02*
X284948000Y-205090400D01*
X284948000Y-205090400D02*
X289142800Y-205090400D01*
X289142800Y-205090400D02*
X289142800Y-209488400D01*
X289142800Y-209488400D02*
X289407600Y-209753200D01*
%TO.N,Net-(J4-Pin_1)*%
X280568400Y-190957200D02*
X280162000Y-191363600D01*
X278841200Y-191363600D02*
X278841200Y-193903600D01*
X280568400Y-165557200D02*
X280568400Y-190957200D01*
X284530800Y-161594800D02*
X284480000Y-161645600D01*
X284480000Y-161645600D02*
X280568400Y-165557200D01*
X280162000Y-191363600D02*
X278841200Y-191363600D01*
X287426400Y-161594800D02*
X284530800Y-161594800D01*
%TO.N,Net-(J6-Pin_9)*%
X241208000Y-193030400D02*
X241604800Y-192633600D01*
X241208000Y-223640328D02*
X241208000Y-193030400D01*
X241295851Y-223728179D02*
X241208000Y-223640328D01*
%TO.N,Net-(J6-Pin_10)*%
X241808000Y-223113600D02*
X241808000Y-195122800D01*
%TO.N,Net-(J6-Pin_11)*%
X242417600Y-222517774D02*
X242417600Y-197662800D01*
X242461513Y-222561687D02*
X242417600Y-222517774D01*
%TO.N,Net-(J6-Pin_13)*%
X243027200Y-200253600D02*
X243078000Y-200202800D01*
X243027200Y-221996000D02*
X243027200Y-200253600D01*
%TO.N,Net-(J6-Pin_14)*%
X243789200Y-221335600D02*
X243789200Y-202793600D01*
X243789200Y-202793600D02*
X243840000Y-202742800D01*
%TO.N,Net-(J6-Pin_15)*%
X244449600Y-220726000D02*
X244449600Y-205376400D01*
X244449600Y-205376400D02*
X244492400Y-205333600D01*
%TO.N,Net-(J6-Pin_1)*%
X269392400Y-241147600D02*
X267952400Y-239707600D01*
X267952400Y-239707600D02*
X267952400Y-177934800D01*
X267952400Y-177934800D02*
X263601200Y-173583600D01*
%TO.N,Net-(J6-Pin_18)*%
X269392400Y-181457600D02*
X269138400Y-181203600D01*
X269392400Y-225907600D02*
X269392400Y-181457600D01*
%TO.N,Net-(U1-R{slash}~{W})*%
X237032800Y-187706000D02*
X236880400Y-187553600D01*
X237032800Y-224383600D02*
X237032800Y-187706000D01*
%TO.N,Net-(U1-PHI2)*%
X236626400Y-225907600D02*
X236270800Y-225552000D01*
X236270800Y-225552000D02*
X236270800Y-177342800D01*
%TO.N,Net-(J6-Pin_3)*%
X264312400Y-241147600D02*
X265412400Y-240047600D01*
X265412400Y-240047600D02*
X265412400Y-190634800D01*
X265412400Y-190634800D02*
X263601200Y-188823600D01*
%TO.N,Net-(J6-Pin_4)*%
X264701200Y-222299235D02*
X264701200Y-192463600D01*
X261772400Y-241147600D02*
X262872400Y-240047600D01*
X262872400Y-240047600D02*
X262872400Y-224128035D01*
X262872400Y-224128035D02*
X264701200Y-222299235D01*
X264701200Y-192463600D02*
X263601200Y-191363600D01*
%TO.N,Net-(J6-Pin_5)*%
X262382000Y-193903600D02*
X263601200Y-193903600D01*
X262382000Y-216693635D02*
X262382000Y-193903600D01*
X259232400Y-241147600D02*
X258132400Y-240047600D01*
X258132400Y-220943235D02*
X262382000Y-216693635D01*
X258132400Y-240047600D02*
X258132400Y-220943235D01*
%TO.N,Net-(J6-Pin_6)*%
X256692400Y-241147600D02*
X255252400Y-239707600D01*
X255252400Y-202811200D02*
X261366000Y-196697600D01*
X255252400Y-239707600D02*
X255252400Y-202811200D01*
%TO.N,Net-(J6-Pin_7)*%
X254152400Y-241147600D02*
X252984000Y-239979200D01*
X252984000Y-203911200D02*
X258521200Y-198374000D01*
X252984000Y-239979200D02*
X252984000Y-203911200D01*
%TO.N,Net-(J6-Pin_8)*%
X250512400Y-240047600D02*
X250512400Y-211836000D01*
X250512400Y-205265200D02*
X254203200Y-201574400D01*
X251612400Y-241147600D02*
X250512400Y-240047600D01*
%TO.N,Net-(J6-Pin_16)*%
X270510000Y-204114400D02*
X270459200Y-204063600D01*
X270510000Y-224180400D02*
X270510000Y-204114400D01*
%TO.N,Net-(J6-Pin_17)*%
X266852400Y-206654400D02*
X266903200Y-206603600D01*
X266852400Y-225907600D02*
X266852400Y-206654400D01*
%TO.N,Net-(U2-I5(TRIG1))*%
X260858000Y-202184000D02*
X260756400Y-202285600D01*
X260756400Y-202285600D02*
X260756400Y-209143600D01*
%TO.N,Net-(J6-Pin_2)*%
X237490000Y-223500835D02*
X237490000Y-175056800D01*
X240741200Y-226752035D02*
X237490000Y-223500835D01*
X237744000Y-174802800D02*
X239217200Y-174802800D01*
X237490000Y-175056800D02*
X237744000Y-174802800D01*
X240741200Y-239471200D02*
X240741200Y-226752035D01*
%TO.N,Net-(J6-Pin_22)*%
X271932400Y-241147600D02*
X273032400Y-240047600D01*
X273032400Y-180576400D02*
X256895600Y-164439600D01*
X273032400Y-240047600D02*
X273032400Y-180576400D01*
%TO.N,Net-(J6-Pin_21)*%
X245092400Y-190838000D02*
X239217200Y-184962800D01*
X241452400Y-238861600D02*
X245092400Y-235221600D01*
X245092400Y-235221600D02*
X245092400Y-190838000D01*
%TO.N,Net-(J6-Pin_19)*%
X274472400Y-225907600D02*
X274472400Y-160680400D01*
X274472400Y-160680400D02*
X274370800Y-160578800D01*
%TO.N,Net-(J6-Pin_20)*%
X271932400Y-225907600D02*
X271932400Y-180150054D01*
X255505600Y-165589600D02*
X254355600Y-164439600D01*
X271932400Y-180150054D02*
X257371946Y-165589600D01*
X257371946Y-165589600D02*
X255505600Y-165589600D01*
%TO.N,Net-(Q1-B)*%
X285982200Y-195224400D02*
X288950400Y-195224400D01*
X284988000Y-196443600D02*
X284988000Y-196218600D01*
X284988000Y-196218600D02*
X285982200Y-195224400D01*
%TO.N,Net-(D2-A)*%
X296824400Y-202590400D02*
X294030400Y-202590400D01*
X294030400Y-202590400D02*
X291642800Y-202590400D01*
%TO.N,Net-(J7-Pin_1)*%
X296000800Y-240548800D02*
X298998000Y-240548800D01*
%TO.N,Net-(J7-Pin_2)*%
X296000800Y-243088800D02*
X301458000Y-243088800D01*
X301458000Y-243088800D02*
X301498000Y-243048800D01*
%TO.N,Net-(J7-Pin_3)*%
X298918000Y-245628800D02*
X298998000Y-245548800D01*
X296000800Y-245628800D02*
X298918000Y-245628800D01*
%TO.N,Net-(SW1-C)*%
X194868800Y-241503200D02*
X210058000Y-241503200D01*
X215579600Y-247024800D02*
X215849200Y-247024800D01*
X210058000Y-241503200D02*
X215579600Y-247024800D01*
X217439600Y-248615200D02*
X223266000Y-248615200D01*
X224688400Y-245850400D02*
X225022400Y-245516400D01*
X223266000Y-248615200D02*
X224688400Y-247192800D01*
X224688400Y-247192800D02*
X224688400Y-245850400D01*
X215849200Y-247024800D02*
X217439600Y-248615200D01*
%TO.N,Net-(J5-Pin_1)*%
X294233600Y-177241200D02*
X294233600Y-164693600D01*
X294233600Y-164693600D02*
X291134800Y-161594800D01*
%TO.N,Net-(C35-Pad2)*%
X286410400Y-185318400D02*
X286410400Y-184120800D01*
X286410400Y-184120800D02*
X288311600Y-182219600D01*
X286410400Y-185318400D02*
X286410400Y-188366400D01*
%TO.N,Net-(SW4-B)*%
X210091200Y-175598000D02*
X208534000Y-174040800D01*
X201625200Y-171805600D02*
X203860400Y-174040800D01*
X209346800Y-212598000D02*
X210091200Y-211853600D01*
X203860400Y-174040800D02*
X208534000Y-174040800D01*
X210091200Y-211853600D02*
X210091200Y-175598000D01*
%TO.N,Net-(U3-PB1)*%
X235670800Y-218033600D02*
X233680000Y-216042800D01*
X217271600Y-166116000D02*
X223771600Y-166116000D01*
X233680000Y-216042800D02*
X233680000Y-167640000D01*
%TO.N,Net-(U3-PB0)*%
X222902570Y-170942000D02*
X221771200Y-170942000D01*
X228600000Y-218440000D02*
X228600000Y-176639430D01*
X228600000Y-176639430D02*
X222902570Y-170942000D01*
%TO.N,Net-(J8-Pin_1)*%
X286867600Y-240487200D02*
X289915600Y-240487200D01*
X289915600Y-240487200D02*
X290006400Y-240578000D01*
%TO.N,Net-(J8-Pin_2)*%
X292455600Y-243027200D02*
X292506400Y-243078000D01*
X286867600Y-243027200D02*
X292455600Y-243027200D01*
%TO.N,Net-(J8-Pin_3)*%
X289995600Y-245567200D02*
X290006400Y-245578000D01*
X286867600Y-245567200D02*
X289995600Y-245567200D01*
%TO.N,Net-(J6-Pin_23)*%
X264414000Y-161645600D02*
X259689600Y-161645600D01*
X259689600Y-161645600D02*
X259435600Y-161899600D01*
%TD*%
M02*
